<svg width="394" height="405" viewBox="0 0 394 405" fill="none" xmlns="http://www.w3.org/2000/svg">
<path d="M73.8707 107.182C68.3707 109.182 53.1339 121.682 48.8707 126.182" stroke="#CA96E1" stroke-width="22" stroke-linecap="round" stroke-linejoin="round"/>
<path d="M78.3706 103.682C86.3706 99.5153 99.6648 91.6702 110.871 88.682C133.371 82.682 151.773 85.1247 159.871 86.682C172.871 89.182 189.871 93.682 198.371 92.182C226.371 87.2408 247.871 78.682 255.371 75.6819C262.871 72.6819 286.871 62.1819 289.371 62.1819C296.371 62.182 306.367 70.8315 308.871 84.182C310.371 92.182 310.871 92.2583 310.871 103.682C310.871 116.682 302.909 141.615 298.871 148.682C296.871 152.182 289.371 165.182 279.871 174.182C272.467 181.196 314.871 157.182 318.371 174.182C321.71 190.402 297.194 205.572 289.371 210.182C261.371 226.682 246.871 231.369 232.871 243.182C223.389 251.182 217.371 262.182 214.371 270.682C210.312 282.182 202.873 294.646 217.371 295.682C224.371 296.182 229.871 297.182 248.871 295.182" stroke="#CA96E1" stroke-width="22" stroke-linecap="round" stroke-linejoin="round"/>
<path d="M188.371 11.182C203.481 11.182 231.339 10.3683 255.871 12.1819C281.668 14.089 304.48 20.165 333.871 43.1819C416.871 108.182 396.871 282.682 243.371 295.682" stroke="#CA96E1" stroke-width="22" stroke-linecap="round" stroke-linejoin="round"/>
<path d="M75.3706 11.182L194.371 11.182" stroke="#CA96E1" stroke-width="22" stroke-linecap="round" stroke-linejoin="round"/>
<path d="M75.3706 12.182V105.182" stroke="#CA96E1" stroke-width="22" stroke-linecap="round" stroke-linejoin="round"/>
<path d="M75.3706 106.682L76.3706 116.682L77.3706 127.182L79.3706 135.182C82.8706 149.682 96.6616 157.015 101.871 161.182C104.322 163.143 114.871 172.182 122.871 181.866C138.371 199.182 147.235 218.125 148.871 221.182C160.371 242.682 162.871 250.682 160.871 263.182C158.835 275.905 142.877 283.682 125.371 283.682C93.3706 283.682 90.3706 283.682 77.3706 283.682" stroke="#CA96E1" stroke-width="22" stroke-linecap="round" stroke-linejoin="round"/>
<path d="M102.871 283.682C136.371 282.682 154.371 303.682 157.871 308.182C164.086 316.174 168.371 326.182 169.371 329.682C170.656 334.182 173.871 347.182 174.871 361.182C175.445 369.224 175.871 382.682 174.871 392.182" stroke="#CA96E1" stroke-width="22" stroke-linecap="round" stroke-linejoin="round"/>
<path d="M75.3706 283.682V337.682V392.682" stroke="#CA96E1" stroke-width="22" stroke-linecap="round" stroke-linejoin="round"/>
<path d="M75.3706 393.182H174.371" stroke="#CA96E1" stroke-width="22" stroke-linecap="round" stroke-linejoin="round"/>
<path d="M49.3703 125.682C41.8703 132.682 31.5682 147.519 29.3703 151.182C24.8703 158.682 22.8703 162.682 20.8703 169.182C18.4088 177.182 16.3709 182.682 13.8707 197.682C10.2038 219.682 10.9274 233.198 11.3706 239.182C12.8706 249.182 15.1212 257.785 31.8706 267.682C42.8706 274.182 70.3706 283.182 77.8706 284.182" stroke="#CA96E1" stroke-width="22" stroke-linecap="round" stroke-linejoin="round"/>
</svg>
